<?xml version="1.0" standalone="no"?>
<!DOCTYPE svg PUBLIC "-//W3C//DTD SVG 20010904//EN"
 "http://www.w3.org/TR/2001/REC-SVG-20010904/DTD/svg10.dtd">
<svg version="1.0" xmlns="http://www.w3.org/2000/svg"
 width="500.000000pt" height="500.000000pt" viewBox="0 0 500.000000 500.000000"
 preserveAspectRatio="xMidYMid meet">
<metadata>
Created by potrace 1.11, written by Peter Selinger 2001-2013
</metadata>
<g transform="translate(0.000000,500.000000) scale(0.100000,-0.100000)"
fill="#000000" stroke="none">
<path d="M0 2500 l0 -2500 2172 0 2173 0 80 78 80 77 -75 -78 c-41 -42 -70
-77 -64 -77 6 0 151 147 323 326 l311 325 0 2175 0 2174 -2500 0 -2500 0 0
-2500z m4870 -1965 c-41 -41 -77 -75 -79 -75 -3 0 28 34 69 75 41 41 77 75 79
75 3 0 -28 -34 -69 -75z m-220 -230 c-41 -41 -77 -75 -79 -75 -3 0 28 34 69
75 41 41 77 75 79 75 3 0 -28 -34 -69 -75z"/>
</g>
</svg>
